<?xml version="1.0" encoding="utf-8"?>
<!-- Generator: Adobe Illustrator 22.1.0, SVG Export Plug-In . SVG Version: 6.00 Build 0)  -->
<svg version="1.1" xmlns="http://www.w3.org/2000/svg" xmlns:xlink="http://www.w3.org/1999/xlink" x="0px" y="0px"
	 viewBox="0 0 1152 1152" style="enable-background:new 0 0 1152 1152;" xml:space="preserve">
<style type="text/css">
	.st0{fill:#4B5666;}
	.st1{fill:#FBD35C;}
	.st2{fill:#A4D970;}
	.st3{fill:#9EBEED;}
	.st4{fill:#FA7977;}
	.st5{fill:#FFFFFF;}
	.st6{font-family:'OpenSans-Semibold';}
	.st7{font-size:43px;}
</style>
<g id="Original_Art">
	<circle class="st0" cx="576" cy="576" r="576"/>
	<g>
		<path class="st1" d="M188.3,188.3C402.6-26,749.4-26,963.7,188.3L576,576L188.3,188.3z"/>
	</g>
	<g>
		<path class="st2" d="M963.7,188.3c214.3,214.3,214.3,561.1,0,775.4L576,576L963.7,188.3z"/>
	</g>
	<g>
		<path class="st3" d="M963.7,963.7c-214.3,214.3-561.1,214.3-775.4,0L576,576L963.7,963.7z"/>
	</g>
	<g>
		<path class="st4" d="M188.3,963.7C-26,749.4-26,402.6,188.3,188.3L576,576L188.3,963.7z"/>
	</g>
	<circle class="st0" cx="576" cy="576" r="194.7"/>
	<g>
		<path class="st5" d="M466.7,560.9l-15.1-39.4h-0.2c0.3,3.1,0.4,6.8,0.4,11.1v28.3h-4.8v-44.4h7.8l14.1,36.7h0.2l14.2-36.7h7.7
			v44.4h-5.2v-28.6c0-3.3,0.1-6.8,0.4-10.7h-0.2l-15.2,39.3L466.7,560.9L466.7,560.9z"/>
		<path class="st5" d="M541.8,538.6c0,7.1-1.8,12.7-5.4,16.8c-3.6,4.1-8.6,6.1-15,6.1c-6.5,0-11.6-2-15.2-6c-3.6-4-5.3-9.7-5.3-16.9
			c0-7.2,1.8-12.8,5.3-16.8s8.6-6,15.2-6c6.4,0,11.4,2,15,6.1S541.8,531.5,541.8,538.6z M506.4,538.6c0,6,1.3,10.6,3.8,13.7
			c2.6,3.1,6.3,4.7,11.2,4.7c4.9,0,8.6-1.6,11.2-4.7c2.5-3.1,3.8-7.7,3.8-13.7c0-6-1.3-10.5-3.8-13.6c-2.5-3.1-6.2-4.6-11.1-4.6
			c-4.9,0-8.7,1.6-11.2,4.7C507.7,528.2,506.4,532.7,506.4,538.6z"/>
		<path class="st5" d="M587.2,538.3c0,7.3-2,12.9-6,16.8c-4,3.9-9.7,5.8-17.2,5.8h-12.3v-44.4h13.6c6.9,0,12.3,1.9,16.1,5.7
			S587.2,531.4,587.2,538.3z M581.7,538.5c0-5.8-1.5-10.2-4.4-13.1c-2.9-2.9-7.2-4.4-13-4.4h-7.5v35.5h6.3c6.2,0,10.8-1.5,13.9-4.5
			S581.7,544.4,581.7,538.5z"/>
		<path class="st5" d="M621.9,560.9h-24.8v-44.4h24.8v4.6h-19.6v14.3h18.4v4.6h-18.4v16.4h19.6L621.9,560.9L621.9,560.9z"/>
		<path class="st5" d="M636.9,542.4v18.5h-5.2v-44.4h12.2c5.5,0,9.5,1,12.1,3.1c2.6,2.1,3.9,5.2,3.9,9.4c0,5.9-3,9.8-8.9,11.9
			l12.1,20h-6.1l-10.8-18.5H636.9z M636.9,538h7.1c3.6,0,6.3-0.7,8-2.2s2.6-3.6,2.6-6.5c0-2.9-0.9-5.1-2.6-6.4s-4.5-1.9-8.3-1.9
			h-6.7L636.9,538L636.9,538z"/>
		<path class="st5" d="M704.9,560.9H699l-24.3-37.3h-0.2c0.3,4.4,0.5,8.4,0.5,12v25.3h-4.8v-44.4h5.8l24.2,37.1h0.2
			c0-0.5-0.1-2.3-0.3-5.3s-0.2-5.1-0.2-6.4v-25.5h4.8L704.9,560.9L704.9,560.9z"/>
		<path class="st5" d="M525.5,635.6l-5.5-14.1h-17.8l-5.5,14.1h-5.2l17.6-44.6h4.3l17.5,44.6H525.5z M518.4,616.8l-5.2-13.8
			c-0.7-1.7-1.4-3.9-2.1-6.4c-0.4,1.9-1.1,4.1-1.9,6.4l-5.2,13.8H518.4z"/>
		<path class="st5" d="M556.5,612.3h15.1v21.6c-2.4,0.8-4.7,1.3-7.2,1.7c-2.4,0.4-5.2,0.6-8.5,0.6c-6.7,0-12-2-15.7-6
			s-5.6-9.6-5.6-16.8c0-4.6,0.9-8.7,2.8-12.1c1.9-3.5,4.5-6.1,8-8c3.5-1.8,7.6-2.8,12.2-2.8c4.7,0,9.2,0.9,13.3,2.6l-2,4.6
			c-4-1.7-7.9-2.6-11.6-2.6c-5.4,0-9.6,1.6-12.7,4.8c-3,3.2-4.6,7.7-4.6,13.4c0,6,1.5,10.5,4.4,13.6c2.9,3.1,7.2,4.7,12.9,4.7
			c3.1,0,6.1-0.4,9-1.1V617h-9.9L556.5,612.3L556.5,612.3z"/>
		<path class="st5" d="M582.3,635.6v-44.4h5.2v44.4H582.3z"/>
		<path class="st5" d="M599.7,635.6v-44.4h5.2v39.8h19.6v4.7H599.7z"/>
		<path class="st5" d="M656.8,635.6H632v-44.4h24.8v4.6h-19.6v14.3h18.4v4.6h-18.4V631h19.6V635.6z"/>
	</g>
	<g>
		<path class="st0" d="M468.8,994.7l-8.7-25H460c0.2,3.7,0.3,7.2,0.3,10.5v14.6h-4.5v-30h6.9l8.3,23.9h0.1l8.6-23.9h6.9v30H482
			v-14.8c0-1.5,0-3.4,0.1-5.8c0.1-2.4,0.1-3.8,0.2-4.3h-0.2l-9,25L468.8,994.7L468.8,994.7z"/>
		<path class="st0" d="M508.3,994.7l-1-3.2h-0.2c-1.1,1.4-2.2,2.3-3.3,2.8c-1.1,0.5-2.5,0.7-4.3,0.7c-2.2,0-4-0.6-5.2-1.8
			c-1.3-1.2-1.9-2.9-1.9-5.1c0-2.3,0.9-4.1,2.6-5.3s4.4-1.8,7.9-1.9l3.9-0.1v-1.2c0-1.4-0.3-2.5-1-3.3c-0.7-0.7-1.7-1.1-3.1-1.1
			c-1.2,0-2.3,0.2-3.3,0.5s-2.1,0.7-3.1,1.2l-1.6-3.4c1.2-0.6,2.6-1.1,4-1.5c1.5-0.3,2.8-0.5,4.1-0.5c2.9,0,5.1,0.6,6.5,1.9
			s2.2,3.2,2.2,5.9v15.3L508.3,994.7L508.3,994.7z M501.1,991.4c1.8,0,3.2-0.5,4.2-1.5c1.1-1,1.6-2.3,1.6-4.1v-2L504,984
			c-2.3,0.1-3.9,0.5-5,1.1c-1,0.7-1.5,1.7-1.5,3.1c0,1,0.3,1.8,0.9,2.3C499,991.2,499.9,991.4,501.1,991.4z"/>
		<path class="st0" d="M523.1,982.7l2.7-3.4l6.8-7.3h5.6l-9.1,9.7l9.7,12.9h-5.7l-7.3-9.9l-2.6,2.2v7.8h-4.8v-31.9h4.8v15.6
			l-0.2,4.4L523.1,982.7L523.1,982.7z"/>
		<path class="st0" d="M552.4,995.1c-3.5,0-6.3-1-8.3-3.1c-2-2.1-3-4.9-3-8.5c0-3.7,0.9-6.6,2.8-8.7s4.4-3.2,7.6-3.2
			c3,0,5.4,0.9,7.1,2.7s2.6,4.3,2.6,7.5v2.6h-15.1c0.1,2.2,0.7,3.9,1.8,5.1s2.7,1.8,4.7,1.8c1.3,0,2.6-0.1,3.7-0.4s2.4-0.7,3.7-1.3
			v3.9c-1.2,0.6-2.4,1-3.6,1.2S554,995.1,552.4,995.1z M551.5,975.3c-1.5,0-2.8,0.5-3.7,1.5c-0.9,1-1.5,2.4-1.7,4.2h10.3
			c0-1.9-0.5-3.3-1.4-4.3C554.3,975.8,553.1,975.3,551.5,975.3z"/>
		<path class="st0" d="M595.4,986.6c0,2.7-1,4.8-2.9,6.3s-4.6,2.3-8,2.3s-6.2-0.5-8.3-1.6v-4.6c1.4,0.6,2.8,1.1,4.4,1.5
			c1.5,0.4,3,0.6,4.3,0.6c1.9,0,3.4-0.4,4.3-1.1c0.9-0.7,1.4-1.7,1.4-3c0-1.1-0.4-2.1-1.3-2.9s-2.6-1.7-5.2-2.8
			c-2.7-1.1-4.7-2.4-5.8-3.8s-1.7-3.1-1.7-5.1c0-2.5,0.9-4.5,2.7-5.9s4.2-2.2,7.2-2.2c2.9,0,5.7,0.6,8.6,1.9l-1.6,4
			c-2.7-1.1-5-1.7-7.1-1.7c-1.6,0-2.8,0.3-3.6,1c-0.8,0.7-1.2,1.6-1.2,2.7c0,0.8,0.2,1.4,0.5,2c0.3,0.6,0.9,1.1,1.6,1.6
			s2.1,1.1,4.1,1.9c2.2,0.9,3.8,1.8,4.8,2.6s1.8,1.7,2.3,2.7S595.4,985.2,595.4,986.6z"/>
		<path class="st0" d="M614.9,994.7l-1-3.2h-0.2c-1.1,1.4-2.2,2.3-3.3,2.8c-1.1,0.5-2.5,0.7-4.3,0.7c-2.2,0-4-0.6-5.2-1.8
			c-1.3-1.2-1.9-2.9-1.9-5.1c0-2.3,0.9-4.1,2.6-5.3s4.4-1.8,7.9-1.9l3.9-0.1v-1.2c0-1.4-0.3-2.5-1-3.3c-0.7-0.7-1.7-1.1-3.1-1.1
			c-1.2,0-2.3,0.2-3.3,0.5s-2.1,0.7-3.1,1.2l-1.6-3.4c1.2-0.6,2.6-1.1,4-1.5c1.5-0.3,2.8-0.5,4.1-0.5c2.9,0,5.1,0.6,6.5,1.9
			s2.2,3.2,2.2,5.9v15.3L614.9,994.7L614.9,994.7z M607.7,991.4c1.8,0,3.2-0.5,4.2-1.5c1.1-1,1.6-2.3,1.6-4.1v-2l-2.9,0.1
			c-2.3,0.1-3.9,0.5-5,1.1c-1,0.7-1.5,1.7-1.5,3.1c0,1,0.3,1.8,0.9,2.3C605.6,991.2,606.5,991.4,607.7,991.4z"/>
		<path class="st0" d="M636.4,975.7h-5.5v19h-4.8v-19h-3.7v-2.3l3.7-1.5v-1.5c0-2.7,0.6-4.7,1.9-6c1.3-1.3,3.2-1.9,5.8-1.9
			c1.7,0,3.4,0.3,5,0.8l-1.3,3.7c-1.2-0.4-2.3-0.6-3.4-0.6c-1.1,0-1.9,0.3-2.4,1c-0.5,0.7-0.7,1.7-0.7,3v1.5h5.5L636.4,975.7
			L636.4,975.7z"/>
		<path class="st0" d="M650.2,995.1c-3.5,0-6.3-1-8.3-3.1c-2-2.1-3-4.9-3-8.5c0-3.7,0.9-6.6,2.8-8.7s4.4-3.2,7.6-3.2
			c3,0,5.4,0.9,7.1,2.7s2.6,4.3,2.6,7.5v2.6h-15.1c0.1,2.2,0.7,3.9,1.8,5.1s2.7,1.8,4.7,1.8c1.3,0,2.6-0.1,3.7-0.4s2.4-0.7,3.7-1.3
			v3.9c-1.2,0.6-2.4,1-3.6,1.2S651.8,995.1,650.2,995.1z M649.3,975.3c-1.5,0-2.8,0.5-3.7,1.5c-0.9,1-1.5,2.4-1.7,4.2h10.3
			c0-1.9-0.5-3.3-1.4-4.3C652.1,975.8,650.9,975.3,649.3,975.3z"/>
		<path class="st0" d="M673,991.2c1.2,0,2.4-0.2,3.5-0.6v3.6c-0.5,0.2-1.2,0.4-2.1,0.6c-0.8,0.2-1.7,0.2-2.6,0.2
			c-4.6,0-6.8-2.4-6.8-7.2v-12.2h-3.1v-2.1l3.3-1.8l1.6-4.8h3v5h6.5v3.7h-6.5v12.1c0,1.2,0.3,2,0.9,2.6
			C671.2,991,672,991.2,673,991.2z"/>
		<path class="st0" d="M677.6,972h5.2l4.6,12.9c0.7,1.8,1.2,3.6,1.4,5.2h0.2c0.1-0.8,0.3-1.7,0.7-2.7s2.1-6.2,5.2-15.3h5.2
			l-9.7,25.7c-1.8,4.7-4.7,7.1-8.8,7.1c-1.1,0-2.1-0.1-3.1-0.3v-3.8c0.7,0.2,1.6,0.2,2.5,0.2c2.3,0,4-1.3,4.9-4l0.8-2.1L677.6,972z"
			/>
		<path class="st0" d="M452.1,1045.1l-1-3.2h-0.2c-1.1,1.4-2.2,2.3-3.3,2.8c-1.1,0.5-2.5,0.7-4.3,0.7c-2.2,0-4-0.6-5.2-1.8
			c-1.3-1.2-1.9-2.9-1.9-5.1c0-2.3,0.9-4.1,2.6-5.3s4.4-1.8,7.9-1.9l3.9-0.1v-1.2c0-1.4-0.3-2.5-1-3.3c-0.7-0.7-1.7-1.1-3.1-1.1
			c-1.2,0-2.3,0.2-3.3,0.5s-2.1,0.7-3.1,1.2l-1.6-3.4c1.2-0.6,2.6-1.1,4-1.5c1.5-0.3,2.8-0.5,4.1-0.5c2.9,0,5.1,0.6,6.5,1.9
			c1.5,1.3,2.2,3.2,2.2,5.9v15.3H452.1z M444.9,1041.8c1.8,0,3.2-0.5,4.2-1.5c1.1-1,1.6-2.3,1.6-4.1v-2l-2.9,0.1
			c-2.3,0.1-3.9,0.5-5,1.1c-1,0.7-1.5,1.7-1.5,3.1c0,1,0.3,1.8,0.9,2.3C442.8,1041.6,443.7,1041.8,444.9,1041.8z"/>
		<path class="st0" d="M493.5,1024.2c0,3.1-1,5.5-3.1,7.2s-5,2.5-8.8,2.5h-3.1v11.2h-4.9v-30h8.6c3.7,0,6.6,0.8,8.4,2.3
			C492.6,1019,493.5,1021.2,493.5,1024.2z M478.6,1029.8h2.6c2.5,0,4.4-0.4,5.5-1.3s1.8-2.2,1.8-4.1c0-1.7-0.5-3-1.6-3.9
			s-2.7-1.3-4.9-1.3h-3.4V1029.8z"/>
		<path class="st0" d="M510.5,1022c1,0,1.8,0.1,2.4,0.2l-0.5,4.5c-0.7-0.2-1.4-0.2-2.1-0.2c-1.9,0-3.5,0.6-4.7,1.9s-1.8,2.9-1.8,4.9
			v11.9H499v-22.7h3.8l0.6,4h0.2c0.8-1.4,1.7-2.4,2.9-3.2C507.8,1022.4,509.1,1022,510.5,1022z"/>
		<path class="st0" d="M527,1045.5c-3.5,0-6.3-1-8.3-3.1c-2-2.1-3-4.9-3-8.5c0-3.7,0.9-6.6,2.8-8.7s4.4-3.2,7.6-3.2
			c3,0,5.4,0.9,7.1,2.7s2.6,4.3,2.6,7.5v2.6h-15.1c0.1,2.2,0.7,3.9,1.8,5.1s2.7,1.8,4.7,1.8c1.3,0,2.6-0.1,3.7-0.4s2.4-0.7,3.7-1.3
			v3.9c-1.2,0.6-2.4,1-3.6,1.2S528.6,1045.5,527,1045.5z M526.1,1025.7c-1.5,0-2.8,0.5-3.7,1.5c-0.9,1-1.5,2.4-1.7,4.2h10.3
			c0-1.9-0.5-3.3-1.4-4.3C528.9,1026.2,527.7,1025.7,526.1,1025.7z"/>
		<path class="st0" d="M552.8,1022c1,0,1.8,0.1,2.4,0.2l-0.5,4.5c-0.7-0.2-1.4-0.2-2.1-0.2c-1.9,0-3.5,0.6-4.7,1.9s-1.8,2.9-1.8,4.9
			v11.9h-4.8v-22.7h3.8l0.6,4h0.2c0.8-1.4,1.7-2.4,2.9-3.2C550.1,1022.4,551.4,1022,552.8,1022z"/>
		<path class="st0" d="M569.3,1045.5c-3.5,0-6.3-1-8.3-3.1c-2-2.1-3-4.9-3-8.5c0-3.7,0.9-6.6,2.8-8.7s4.4-3.2,7.6-3.2
			c3,0,5.4,0.9,7.1,2.7s2.6,4.3,2.6,7.5v2.6H563c0.1,2.2,0.7,3.9,1.8,5.1s2.7,1.8,4.7,1.8c1.3,0,2.6-0.1,3.7-0.4s2.4-0.7,3.7-1.3
			v3.9c-1.2,0.6-2.4,1-3.6,1.2S570.9,1045.5,569.3,1045.5z M568.4,1025.7c-1.5,0-2.8,0.5-3.7,1.5c-0.9,1-1.5,2.4-1.7,4.2h10.3
			c0-1.9-0.5-3.3-1.4-4.3C571.2,1026.2,570,1025.7,568.4,1025.7z"/>
		<path class="st0" d="M591.2,1045.5c-2.8,0-5-1-6.6-3.1s-2.4-4.9-2.4-8.6s0.8-6.6,2.4-8.7c1.6-2.1,3.8-3.1,6.7-3.1
			c1.4,0,2.7,0.3,3.8,0.8c1.1,0.5,2.1,1.4,3,2.6h0.2l0.5-3h4v32.8H598v-9.6c0-0.6,0-1.2,0.1-1.9s0.1-1.2,0.1-1.5H598
			C596.6,1044.4,594.3,1045.5,591.2,1045.5z M592.6,1041.7c2,0,3.5-0.6,4.4-1.8c0.9-1.2,1.3-2.9,1.3-5.3v-0.8c0-2.8-0.5-4.8-1.4-6
			s-2.4-1.8-4.4-1.8c-1.7,0-3,0.7-3.9,2.1s-1.4,3.3-1.4,5.9C587.2,1039.1,589,1041.7,592.6,1041.7z"/>
		<path class="st0" d="M625.8,1045.1l-0.7-3h-0.2c-0.7,1.1-1.6,1.9-2.9,2.5c-1.2,0.6-2.6,0.9-4.2,0.9c-2.7,0-4.8-0.7-6.2-2.1
			s-2-3.4-2-6.2v-14.8h4.9v14c0,1.7,0.4,3,1.1,3.9c0.7,0.9,1.8,1.3,3.3,1.3c2,0,3.5-0.6,4.5-1.8c0.9-1.2,1.4-3.2,1.4-6.1v-11.3h4.8
			v22.7H625.8z"/>
		<path class="st0" d="M636.1,1016.4c0-0.9,0.2-1.5,0.7-2c0.5-0.5,1.1-0.7,2-0.7c0.8,0,1.5,0.2,2,0.7c0.5,0.5,0.7,1.1,0.7,2
			c0,0.8-0.2,1.5-0.7,1.9c-0.5,0.5-1.1,0.7-2,0.7c-0.9,0-1.5-0.2-2-0.7C636.4,1017.9,636.1,1017.3,636.1,1016.4z M641.3,1045.1h-4.8
			v-22.7h4.8V1045.1z"/>
		<path class="st0" d="M663.4,1038.7c0,2.2-0.8,3.9-2.4,5.1s-3.9,1.8-6.9,1.8c-3,0-5.4-0.5-7.3-1.4v-4.2c2.7,1.2,5.1,1.8,7.4,1.8
			c3,0,4.5-0.9,4.5-2.7c0-0.6-0.2-1.1-0.5-1.4s-0.9-0.8-1.6-1.2s-1.8-0.9-3.1-1.4c-2.6-1-4.4-2-5.3-3c-0.9-1-1.4-2.3-1.4-3.9
			c0-1.9,0.8-3.4,2.3-4.5c1.6-1.1,3.7-1.6,6.4-1.6c2.7,0,5.2,0.5,7.6,1.6l-1.6,3.6c-2.4-1-4.5-1.5-6.2-1.5c-2.5,0-3.8,0.7-3.8,2.2
			c0,0.7,0.3,1.3,1,1.8s2.1,1.2,4.3,2c1.9,0.7,3.2,1.4,4.1,2s1.5,1.3,1.9,2.1S663.4,1037.6,663.4,1038.7z"/>
		<path class="st0" d="M668.3,1016.4c0-0.9,0.2-1.5,0.7-2c0.5-0.5,1.1-0.7,2-0.7c0.8,0,1.5,0.2,2,0.7c0.5,0.5,0.7,1.1,0.7,2
			c0,0.8-0.2,1.5-0.7,1.9c-0.5,0.5-1.1,0.7-2,0.7c-0.9,0-1.5-0.2-2-0.7C668.5,1017.9,668.3,1017.3,668.3,1016.4z M673.4,1045.1h-4.8
			v-22.7h4.8V1045.1z"/>
		<path class="st0" d="M688.8,1041.6c1.2,0,2.4-0.2,3.5-0.6v3.6c-0.5,0.2-1.2,0.4-2.1,0.6c-0.8,0.2-1.7,0.2-2.6,0.2
			c-4.6,0-6.8-2.4-6.8-7.2v-12.2h-3.1v-2.1l3.3-1.8l1.6-4.8h3v5h6.5v3.7h-6.5v12.1c0,1.2,0.3,2,0.9,2.6
			C687,1041.4,687.8,1041.6,688.8,1041.6z"/>
		<path class="st0" d="M706.7,1045.5c-3.5,0-6.3-1-8.3-3.1c-2-2.1-3-4.9-3-8.5c0-3.7,0.9-6.6,2.8-8.7s4.4-3.2,7.6-3.2
			c3,0,5.4,0.9,7.1,2.7s2.6,4.3,2.6,7.5v2.6h-15.1c0.1,2.2,0.7,3.9,1.8,5.1s2.7,1.8,4.7,1.8c1.3,0,2.6-0.1,3.7-0.4s2.4-0.7,3.7-1.3
			v3.9c-1.2,0.6-2.4,1-3.6,1.2S708.3,1045.5,706.7,1045.5z M705.8,1025.7c-1.5,0-2.8,0.5-3.7,1.5c-0.9,1-1.5,2.4-1.7,4.2h10.3
			c0-1.9-0.5-3.3-1.4-4.3C708.6,1026.2,707.4,1025.7,705.8,1025.7z"/>
	</g>
	<g>
		<path class="st0" d="M842.3,594.1c0,4.9-1.4,8.7-4.1,11.4c-2.7,2.6-6.7,3.9-11.9,3.9h-8.4v-30h9.3c4.8,0,8.5,1.3,11.1,3.9
			S842.3,589.4,842.3,594.1z M837.1,594.2c0-7.2-3.4-10.8-10.1-10.8h-4.2v21.8h3.5C833.5,605.2,837.1,601.5,837.1,594.2z"/>
		<path class="st0" d="M858.1,609.7c-3.5,0-6.3-1-8.3-3.1c-2-2.1-3-4.9-3-8.5c0-3.7,0.9-6.6,2.8-8.7s4.4-3.2,7.6-3.2
			c3,0,5.4,0.9,7.1,2.7s2.6,4.3,2.6,7.5v2.6h-15.1c0.1,2.2,0.7,3.9,1.8,5.1s2.7,1.8,4.7,1.8c1.3,0,2.6-0.1,3.7-0.4
			c1.2-0.3,2.4-0.7,3.7-1.3v3.9c-1.2,0.6-2.4,1-3.6,1.2S859.7,609.7,858.1,609.7z M857.2,589.9c-1.5,0-2.8,0.5-3.7,1.5
			c-0.9,1-1.5,2.4-1.7,4.2h10.3c0-1.9-0.5-3.3-1.4-4.3C860,590.4,858.8,589.9,857.2,589.9z"/>
		<path class="st0" d="M877.2,609.3h-4.8v-31.9h4.8V609.3z"/>
		<path class="st0" d="M883.8,580.6c0-0.9,0.2-1.5,0.7-2c0.5-0.5,1.1-0.7,2-0.7c0.8,0,1.5,0.2,2,0.7c0.5,0.5,0.7,1.1,0.7,2
			c0,0.8-0.2,1.5-0.7,1.9c-0.5,0.5-1.1,0.7-2,0.7c-0.9,0-1.5-0.2-2-0.7C884.1,582.1,883.8,581.5,883.8,580.6z M889,609.3h-4.8v-22.7
			h4.8V609.3z"/>
		<path class="st0" d="M901,609.3l-8.6-22.7h5.1l4.6,13.2c0.8,2.2,1.3,4,1.4,5.4h0.2c0.1-1,0.6-2.8,1.4-5.4l4.6-13.2h5.1l-8.7,22.7
			H901z"/>
		<path class="st0" d="M928.2,609.7c-3.5,0-6.3-1-8.3-3.1c-2-2.1-3-4.9-3-8.5c0-3.7,0.9-6.6,2.8-8.7s4.4-3.2,7.6-3.2
			c3,0,5.4,0.9,7.1,2.7s2.6,4.3,2.6,7.5v2.6h-15.1c0.1,2.2,0.7,3.9,1.8,5.1s2.7,1.8,4.7,1.8c1.3,0,2.6-0.1,3.7-0.4
			c1.2-0.3,2.4-0.7,3.7-1.3v3.9c-1.2,0.6-2.4,1-3.6,1.2S929.8,609.7,928.2,609.7z M927.3,589.9c-1.5,0-2.8,0.5-3.7,1.5
			c-0.9,1-1.5,2.4-1.7,4.2h10.3c0-1.9-0.5-3.3-1.4-4.3C930.1,590.4,928.9,589.9,927.3,589.9z"/>
		<path class="st0" d="M954,586.2c1,0,1.8,0.1,2.4,0.2l-0.5,4.5c-0.7-0.2-1.4-0.2-2.1-0.2c-1.9,0-3.5,0.6-4.7,1.9
			c-1.2,1.3-1.8,2.9-1.8,4.9v11.9h-4.8v-22.7h3.8l0.6,4h0.2c0.8-1.4,1.7-2.4,2.9-3.2C951.3,586.6,952.6,586.2,954,586.2z"/>
		<path class="st0" d="M989.1,579.4h5.1l-10.5,30h-5.2l-10.5-30h5l6.3,18.6c0.3,0.9,0.7,2,1,3.4c0.4,1.4,0.6,2.4,0.7,3.1
			c0.2-1,0.5-2.2,0.8-3.6s0.7-2.4,0.9-3L989.1,579.4z"/>
		<path class="st0" d="M1011.9,609.3l-1-3.2h-0.2c-1.1,1.4-2.2,2.3-3.3,2.8c-1.1,0.5-2.5,0.7-4.3,0.7c-2.2,0-4-0.6-5.2-1.8
			c-1.3-1.2-1.9-2.9-1.9-5.1c0-2.3,0.9-4.1,2.6-5.3s4.4-1.8,7.9-1.9l3.9-0.1v-1.2c0-1.4-0.3-2.5-1-3.3c-0.7-0.7-1.7-1.1-3.1-1.1
			c-1.2,0-2.3,0.2-3.3,0.5s-2.1,0.7-3.1,1.2l-1.6-3.4c1.2-0.6,2.6-1.1,4-1.5c1.5-0.3,2.8-0.5,4.1-0.5c2.9,0,5.1,0.6,6.5,1.9
			c1.5,1.3,2.2,3.2,2.2,5.9v15.3L1011.9,609.3L1011.9,609.3z M1004.7,606.1c1.8,0,3.2-0.5,4.2-1.5c1.1-1,1.6-2.3,1.6-4.1v-2
			l-2.9,0.1c-2.3,0.1-3.9,0.5-5,1.1c-1,0.7-1.5,1.7-1.5,3.1c0,1,0.3,1.8,0.9,2.3C1002.6,605.8,1003.5,606.1,1004.7,606.1z"/>
		<path class="st0" d="M1026.8,609.3h-4.8v-31.9h4.8V609.3z"/>
		<path class="st0" d="M1049.7,609.3l-0.7-3h-0.2c-0.7,1.1-1.6,1.9-2.9,2.5c-1.2,0.6-2.6,0.9-4.2,0.9c-2.7,0-4.8-0.7-6.2-2.1
			s-2-3.4-2-6.2v-14.8h4.9v14c0,1.7,0.4,3,1.1,3.9c0.7,0.9,1.8,1.3,3.3,1.3c2,0,3.5-0.6,4.5-1.8c0.9-1.2,1.4-3.2,1.4-6.1v-11.3h4.8
			v22.7L1049.7,609.3L1049.7,609.3z"/>
		<path class="st0" d="M1070.3,609.7c-3.5,0-6.3-1-8.3-3.1c-2-2.1-3-4.9-3-8.5c0-3.7,0.9-6.6,2.8-8.7s4.4-3.2,7.6-3.2
			c3,0,5.4,0.9,7.1,2.7s2.6,4.3,2.6,7.5v2.6H1064c0.1,2.2,0.7,3.9,1.8,5.1s2.7,1.8,4.7,1.8c1.3,0,2.6-0.1,3.7-0.4
			c1.2-0.3,2.4-0.7,3.7-1.3v3.9c-1.2,0.6-2.4,1-3.6,1.2S1071.9,609.7,1070.3,609.7z M1069.4,589.9c-1.5,0-2.8,0.5-3.7,1.5
			c-0.9,1-1.5,2.4-1.7,4.2h10.3c0-1.9-0.5-3.3-1.4-4.3C1072.2,590.4,1071,589.9,1069.4,589.9z"/>
		<path class="st0" d="M830.5,633.5c-2.8,0-5,1-6.6,3s-2.4,4.8-2.4,8.3c0,3.7,0.8,6.5,2.3,8.3c1.6,1.9,3.8,2.8,6.7,2.8
			c1.3,0,2.5-0.1,3.7-0.4s2.4-0.6,3.7-1v4.2c-2.4,0.9-5,1.3-8,1.3c-4.4,0-7.8-1.3-10.1-4s-3.5-6.5-3.5-11.4c0-3.1,0.6-5.8,1.7-8.2
			c1.1-2.3,2.8-4.1,5-5.4s4.7-1.9,7.6-1.9c3.1,0,5.9,0.6,8.5,1.9l-1.8,4.1c-1-0.5-2.1-0.9-3.2-1.3
			C833,633.7,831.8,633.5,830.5,633.5z"/>
		<path class="st0" d="M864,648.4c0,3.7-1,6.6-2.9,8.7s-4.5,3.1-7.9,3.1c-2.1,0-4-0.5-5.6-1.4s-2.9-2.3-3.8-4.1s-1.3-3.9-1.3-6.2
			c0-3.7,0.9-6.5,2.8-8.6s4.5-3.1,8-3.1c3.3,0,5.9,1.1,7.8,3.2C863,641.9,864,644.8,864,648.4z M847.5,648.4c0,5.2,1.9,7.9,5.8,7.9
			c3.8,0,5.7-2.6,5.7-7.9c0-5.2-1.9-7.8-5.8-7.8c-2,0-3.5,0.7-4.4,2C848,643.9,847.5,645.9,847.5,648.4z"/>
		<path class="st0" d="M889.5,659.7h-4.8v-13.9c0-1.8-0.4-3.1-1.1-3.9c-0.7-0.9-1.8-1.3-3.4-1.3c-2,0-3.5,0.6-4.5,1.8
			s-1.4,3.2-1.4,6v11.3h-4.8v-22.7h3.8l0.7,3h0.2c0.7-1.1,1.7-1.9,2.9-2.5s2.7-0.9,4.2-0.9c5.4,0,8.2,2.8,8.2,8.3L889.5,659.7
			L889.5,659.7z"/>
		<path class="st0" d="M904.7,656.2c1.2,0,2.4-0.2,3.5-0.6v3.6c-0.5,0.2-1.2,0.4-2.1,0.6c-0.8,0.2-1.7,0.2-2.6,0.2
			c-4.6,0-6.8-2.4-6.8-7.2v-12.2h-3.1v-2.1l3.3-1.8l1.6-4.8h3v5h6.5v3.7h-6.5v12.1c0,1.2,0.3,2,0.9,2.6
			C902.9,656,903.7,656.2,904.7,656.2z"/>
		<path class="st0" d="M912.4,631c0-0.9,0.2-1.5,0.7-2c0.5-0.5,1.1-0.7,2-0.7c0.8,0,1.5,0.2,2,0.7c0.5,0.5,0.7,1.1,0.7,2
			c0,0.8-0.2,1.5-0.7,1.9c-0.5,0.5-1.1,0.7-2,0.7c-0.9,0-1.5-0.2-2-0.7C912.7,632.5,912.4,631.9,912.4,631z M917.5,659.7h-4.8v-22.7
			h4.8V659.7z"/>
		<path class="st0" d="M944.4,659.7h-4.8v-13.9c0-1.8-0.4-3.1-1.1-3.9c-0.7-0.9-1.8-1.3-3.4-1.3c-2,0-3.5,0.6-4.5,1.8
			s-1.4,3.2-1.4,6v11.3h-4.8v-22.7h3.8l0.7,3h0.2c0.7-1.1,1.7-1.9,2.9-2.5s2.7-0.9,4.2-0.9c5.4,0,8.2,2.8,8.2,8.3L944.4,659.7
			L944.4,659.7z"/>
		<path class="st0" d="M967.1,659.7l-0.7-3h-0.2c-0.7,1.1-1.6,1.9-2.9,2.5c-1.2,0.6-2.7,0.9-4.2,0.9c-2.7,0-4.8-0.7-6.2-2.1
			s-2-3.4-2-6.2v-14.8h4.9v14c0,1.7,0.4,3,1.1,3.9c0.7,0.9,1.8,1.3,3.3,1.3c2,0,3.5-0.6,4.5-1.8c0.9-1.2,1.4-3.2,1.4-6.1v-11.3h4.8
			v22.7L967.1,659.7L967.1,659.7z"/>
		<path class="st0" d="M997.9,648.4c0,3.7-0.9,6.6-2.8,8.7s-4.5,3.1-7.9,3.1c-2.1,0-4-0.5-5.6-1.4s-2.9-2.3-3.8-4.1
			s-1.3-3.9-1.3-6.2c0-3.7,0.9-6.5,2.8-8.6s4.5-3.1,8-3.1c3.3,0,5.9,1.1,7.8,3.2C996.9,641.9,997.9,644.8,997.9,648.4z M981.4,648.4
			c0,5.2,1.9,7.9,5.8,7.9c3.8,0,5.7-2.6,5.7-7.9c0-5.2-1.9-7.8-5.8-7.8c-2,0-3.5,0.7-4.4,2C981.8,643.9,981.4,645.9,981.4,648.4z"/>
		<path class="st0" d="M1019.4,659.7l-0.7-3h-0.2c-0.7,1.1-1.6,1.9-2.9,2.5c-1.2,0.6-2.6,0.9-4.2,0.9c-2.7,0-4.8-0.7-6.2-2.1
			s-2-3.4-2-6.2v-14.8h4.9v14c0,1.7,0.4,3,1.1,3.9c0.7,0.9,1.8,1.3,3.3,1.3c2,0,3.5-0.6,4.5-1.8c0.9-1.2,1.4-3.2,1.4-6.1v-11.3h4.8
			v22.7L1019.4,659.7L1019.4,659.7z"/>
		<path class="st0" d="M1045.3,653.3c0,2.2-0.8,3.9-2.4,5.1s-3.9,1.8-6.9,1.8c-3,0-5.4-0.5-7.3-1.4v-4.2c2.7,1.2,5.1,1.8,7.4,1.8
			c3,0,4.4-0.9,4.4-2.7c0-0.6-0.2-1.1-0.5-1.4s-0.9-0.8-1.6-1.2s-1.8-0.9-3.1-1.4c-2.6-1-4.4-2-5.3-3c-0.9-1-1.4-2.3-1.4-3.9
			c0-1.9,0.8-3.4,2.3-4.5c1.6-1.1,3.7-1.6,6.4-1.6c2.7,0,5.2,0.5,7.6,1.6l-1.6,3.6c-2.4-1-4.5-1.5-6.2-1.5c-2.5,0-3.8,0.7-3.8,2.2
			c0,0.7,0.3,1.3,1,1.8c0.7,0.5,2.1,1.2,4.3,2c1.9,0.7,3.2,1.4,4.1,2s1.5,1.3,1.9,2.1S1045.3,652.2,1045.3,653.3z"/>
		<path class="st0" d="M1055.3,659.7h-4.8v-31.9h4.8V659.7z"/>
		<path class="st0" d="M1058.8,637.1h5.2l4.6,12.9c0.7,1.8,1.2,3.6,1.4,5.2h0.2c0.1-0.8,0.3-1.7,0.7-2.7s2.1-6.2,5.2-15.3h5.2
			l-9.7,25.7c-1.8,4.7-4.7,7.1-8.8,7.1c-1.1,0-2.1-0.1-3.1-0.3v-3.8c0.7,0.2,1.6,0.2,2.5,0.2c2.3,0,4-1.3,4.9-4l0.8-2.1
			L1058.8,637.1z"/>
	</g>
	<g>
		<path class="st0" d="M87.2,609.3h-17v-30h17v4.1H75.2v8.2h11.3v4.1H75.2v9.4h12.1V609.3z"/>
		<path class="st0" d="M98.2,597.7l-7.6-11.1h5.5l5.2,7.9l5.2-7.9h5.5l-7.6,11.1l8,11.6h-5.5l-5.6-8.5l-5.6,8.5h-5.5L98.2,597.7z"/>
		<path class="st0" d="M127.8,609.7c-2.9,0-5.1-1-6.7-3.1h-0.3c0.2,1.9,0.3,3.1,0.3,3.5v9.3h-4.8v-32.8h3.9c0.1,0.4,0.3,1.4,0.7,3
			h0.2c1.5-2.3,3.8-3.4,6.8-3.4c2.8,0,5,1,6.6,3.1s2.4,4.9,2.4,8.6s-0.8,6.6-2.4,8.7S130.7,609.7,127.8,609.7z M126.7,590.2
			c-1.9,0-3.3,0.6-4.2,1.7s-1.3,2.9-1.3,5.4v0.7c0,2.8,0.4,4.8,1.3,6s2.3,1.9,4.3,1.9c1.7,0,3-0.7,3.9-2.1s1.4-3.3,1.4-5.8
			c0-2.5-0.4-4.5-1.3-5.8S128.4,590.2,126.7,590.2z"/>
		<path class="st0" d="M152.4,609.7c-3.5,0-6.3-1-8.3-3.1s-3-4.9-3-8.5c0-3.7,0.9-6.6,2.8-8.7s4.4-3.2,7.6-3.2c3,0,5.4,0.9,7.1,2.7
			s2.6,4.3,2.6,7.5v2.6h-15.1c0.1,2.2,0.7,3.9,1.8,5.1s2.7,1.8,4.7,1.8c1.3,0,2.6-0.1,3.7-0.4s2.4-0.7,3.7-1.3v3.9
			c-1.2,0.6-2.4,1-3.6,1.2S153.9,609.7,152.4,609.7z M151.5,589.9c-1.5,0-2.8,0.5-3.7,1.5s-1.5,2.4-1.7,4.2h10.3
			c0-1.9-0.5-3.3-1.4-4.3C154.2,590.4,153,589.9,151.5,589.9z"/>
		<path class="st0" d="M178.2,586.2c1,0,1.8,0.1,2.4,0.2l-0.5,4.5c-0.7-0.2-1.4-0.2-2.1-0.2c-1.9,0-3.5,0.6-4.7,1.9
			s-1.8,2.9-1.8,4.9v11.9h-4.8v-22.7h3.8l0.6,4h0.2c0.8-1.4,1.7-2.4,2.9-3.2S176.8,586.2,178.2,586.2z"/>
		<path class="st0" d="M184.5,580.6c0-0.9,0.2-1.5,0.7-2s1.1-0.7,2-0.7c0.8,0,1.5,0.2,2,0.7s0.7,1.1,0.7,2c0,0.8-0.2,1.5-0.7,1.9
			c-0.5,0.5-1.1,0.7-2,0.7c-0.9,0-1.5-0.2-2-0.7C184.7,582.1,184.5,581.5,184.5,580.6z M189.6,609.3h-4.8v-22.7h4.8V609.3z"/>
		<path class="st0" d="M215.6,609.3h-4.8v-14c0-1.7-0.3-3-1-3.9c-0.7-0.9-1.7-1.3-3.1-1.3c-1.9,0-3.2,0.6-4.1,1.8
			c-0.9,1.2-1.3,3.2-1.3,6v11.3h-4.8v-22.7h3.8l0.7,3h0.2c0.6-1.1,1.5-1.9,2.7-2.5s2.5-0.9,3.9-0.9c3.5,0,5.8,1.2,6.9,3.6h0.3
			c0.7-1.1,1.6-2,2.8-2.6s2.6-0.9,4.2-0.9c2.7,0,4.7,0.7,5.9,2.1s1.9,3.5,1.9,6.3v14.8h-4.8v-14c0-1.7-0.3-3-1-3.9
			c-0.7-0.9-1.7-1.3-3.1-1.3c-1.9,0-3.2,0.6-4.1,1.8c-0.9,1.2-1.3,3-1.3,5.4L215.6,609.3L215.6,609.3z"/>
		<path class="st0" d="M246.6,609.7c-3.5,0-6.3-1-8.3-3.1s-3-4.9-3-8.5c0-3.7,0.9-6.6,2.8-8.7s4.4-3.2,7.6-3.2c3,0,5.4,0.9,7.1,2.7
			s2.6,4.3,2.6,7.5v2.6h-15.1c0.1,2.2,0.7,3.9,1.8,5.1s2.7,1.8,4.7,1.8c1.3,0,2.6-0.1,3.7-0.4s2.4-0.7,3.7-1.3v3.9
			c-1.2,0.6-2.4,1-3.6,1.2S248.1,609.7,246.6,609.7z M245.7,589.9c-1.5,0-2.8,0.5-3.7,1.5s-1.5,2.4-1.7,4.2h10.3
			c0-1.9-0.5-3.3-1.4-4.3C248.4,590.4,247.2,589.9,245.7,589.9z"/>
		<path class="st0" d="M280.8,609.3H276v-13.9c0-1.8-0.4-3.1-1.1-3.9s-1.8-1.3-3.4-1.3c-2,0-3.5,0.6-4.5,1.8s-1.4,3.2-1.4,6v11.3
			h-4.8v-22.7h3.8l0.7,3h0.2c0.7-1.1,1.7-1.9,2.9-2.5s2.7-0.9,4.2-0.9c5.4,0,8.2,2.8,8.2,8.3L280.8,609.3L280.8,609.3z"/>
		<path class="st0" d="M296,605.8c1.2,0,2.4-0.2,3.5-0.6v3.6c-0.5,0.2-1.2,0.4-2.1,0.6s-1.7,0.2-2.6,0.2c-4.6,0-6.8-2.4-6.8-7.2
			v-12.2h-3.1v-2.1l3.3-1.8l1.6-4.8h3v5h6.5v3.7h-6.5v12.1c0,1.2,0.3,2,0.9,2.6C294.3,605.6,295,605.8,296,605.8z"/>
		<path class="st0" d="M313.5,601.4c0-1.8,0.4-3.4,1.3-4.7c0.9-1.3,2.5-2.7,4.7-4c-1.3-1.5-2.2-2.8-2.7-3.8c-0.5-1-0.7-2.1-0.7-3.3
			c0-2.1,0.7-3.7,2.2-4.9s3.5-1.8,6-1.8c2.4,0,4.3,0.6,5.7,1.8c1.4,1.2,2.1,2.7,2.1,4.7c0,1.6-0.5,3-1.4,4.2s-2.5,2.5-4.6,3.8
			l7.1,6.8c1.1-1.5,2-3.6,2.8-6.4h5c-1,3.9-2.5,7-4.6,9.5l6.2,6h-6.2l-3.1-3c-1.4,1.1-2.9,2-4.5,2.5c-1.6,0.6-3.3,0.9-5.2,0.9
			c-3.1,0-5.6-0.7-7.4-2.2S313.5,604,313.5,601.4z M323.8,605.6c2.5,0,4.6-0.7,6.4-2.2l-7.9-7.7c-1.4,0.9-2.4,1.8-3,2.6
			s-0.8,1.7-0.8,2.8c0,1.3,0.5,2.4,1.4,3.3C320.9,605.2,322.2,605.6,323.8,605.6z M320.7,585.8c0,0.9,0.2,1.7,0.7,2.4
			s1.1,1.6,1.9,2.4c1.5-0.9,2.6-1.7,3.3-2.5c0.6-0.8,0.9-1.6,0.9-2.6c0-0.9-0.3-1.6-0.9-2.1s-1.4-0.8-2.4-0.8
			c-1.1,0-1.9,0.3-2.6,0.8C321.1,584.1,320.7,584.9,320.7,585.8z"/>
		<path class="st0" d="M70.2,659.7v-30h4.9v25.8h12.7v4.2H70.2z"/>
		<path class="st0" d="M102.3,660.1c-3.5,0-6.3-1-8.3-3.1s-3-4.9-3-8.5c0-3.7,0.9-6.6,2.8-8.7s4.4-3.2,7.6-3.2c3,0,5.4,0.9,7.1,2.7
			s2.6,4.3,2.6,7.5v2.6H96c0.1,2.2,0.7,3.9,1.8,5.1s2.7,1.8,4.7,1.8c1.3,0,2.6-0.1,3.7-0.4s2.4-0.7,3.7-1.3v3.9
			c-1.2,0.6-2.4,1-3.6,1.2S103.9,660.1,102.3,660.1z M101.4,640.3c-1.5,0-2.8,0.5-3.7,1.5s-1.5,2.4-1.7,4.2h10.3
			c0-1.9-0.5-3.3-1.4-4.3C104.2,640.8,103,640.3,101.4,640.3z"/>
		<path class="st0" d="M130.8,659.7l-1-3.2h-0.2c-1.1,1.4-2.2,2.3-3.3,2.8c-1.1,0.5-2.5,0.7-4.3,0.7c-2.2,0-4-0.6-5.2-1.8
			s-1.9-2.9-1.9-5.1c0-2.3,0.9-4.1,2.6-5.3s4.4-1.8,7.9-1.9l3.9-0.1v-1.2c0-1.4-0.3-2.5-1-3.3c-0.7-0.7-1.7-1.1-3.1-1.1
			c-1.2,0-2.3,0.2-3.3,0.5s-2.1,0.7-3.1,1.2l-1.6-3.4c1.2-0.6,2.6-1.1,4-1.5c1.5-0.3,2.8-0.5,4.1-0.5c2.9,0,5.1,0.6,6.5,1.9
			s2.2,3.2,2.2,5.9v15.3L130.8,659.7L130.8,659.7z M123.6,656.5c1.8,0,3.2-0.5,4.2-1.5c1.1-1,1.6-2.3,1.6-4.1v-2l-2.9,0.1
			c-2.3,0.1-3.9,0.5-5,1.1c-1,0.7-1.5,1.7-1.5,3.1c0,1,0.3,1.8,0.9,2.3C121.5,656.2,122.4,656.5,123.6,656.5z"/>
		<path class="st0" d="M152.5,636.6c1,0,1.8,0.1,2.4,0.2l-0.5,4.5c-0.7-0.2-1.4-0.2-2.1-0.2c-1.9,0-3.5,0.6-4.7,1.9
			s-1.8,2.9-1.8,4.9v11.9H141v-22.7h3.8l0.6,4h0.2c0.8-1.4,1.7-2.4,2.9-3.2S151.1,636.6,152.5,636.6z"/>
		<path class="st0" d="M179,659.7h-4.8v-13.9c0-1.8-0.4-3.1-1.1-3.9s-1.8-1.3-3.4-1.3c-2,0-3.5,0.6-4.5,1.8s-1.4,3.2-1.4,6v11.3
			h-4.8v-22.7h3.8l0.7,3h0.2c0.7-1.1,1.7-1.9,2.9-2.5s2.7-0.9,4.2-0.9c5.4,0,8.2,2.8,8.2,8.3L179,659.7L179,659.7z"/>
		<path class="st0" d="M202.1,647.8v12h-4.9v-30h8.5c3.9,0,6.7,0.7,8.6,2.2s2.8,3.6,2.8,6.6c0,3.7-1.9,6.4-5.8,8l8.5,13.3h-5.6
			l-7.2-12H202.1z M202.1,643.7h3.4c2.3,0,3.9-0.4,5-1.3s1.5-2.1,1.5-3.8c0-1.7-0.6-2.9-1.7-3.7s-2.8-1.1-5-1.1h-3.2L202.1,643.7
			L202.1,643.7z"/>
		<path class="st0" d="M237.7,659.7l-1-3.2h-0.2c-1.1,1.4-2.2,2.3-3.3,2.8c-1.1,0.5-2.5,0.7-4.3,0.7c-2.2,0-4-0.6-5.2-1.8
			s-1.9-2.9-1.9-5.1c0-2.3,0.9-4.1,2.6-5.3s4.4-1.8,7.9-1.9l3.9-0.1v-1.2c0-1.4-0.3-2.5-1-3.3c-0.7-0.7-1.7-1.1-3.1-1.1
			c-1.2,0-2.3,0.2-3.3,0.5s-2.1,0.7-3.1,1.2l-1.6-3.4c1.2-0.6,2.6-1.1,4-1.5c1.5-0.3,2.8-0.5,4.1-0.5c2.9,0,5.1,0.6,6.5,1.9
			s2.2,3.2,2.2,5.9v15.3L237.7,659.7L237.7,659.7z M230.5,656.5c1.8,0,3.2-0.5,4.2-1.5c1.1-1,1.6-2.3,1.6-4.1v-2l-2.9,0.1
			c-2.3,0.1-3.9,0.5-5,1.1c-1,0.7-1.5,1.7-1.5,3.1c0,1,0.3,1.8,0.9,2.3C228.4,656.2,229.3,656.5,230.5,656.5z"/>
		<path class="st0" d="M259.4,660.1c-2.9,0-5.1-1-6.7-3.1h-0.3c0.2,1.9,0.3,3.1,0.3,3.5v9.3h-4.8v-32.8h3.9c0.1,0.4,0.3,1.4,0.7,3
			h0.2c1.5-2.3,3.8-3.4,6.8-3.4c2.8,0,5,1,6.6,3.1s2.4,4.9,2.4,8.6s-0.8,6.6-2.4,8.7S262.2,660.1,259.4,660.1z M258.2,640.6
			c-1.9,0-3.3,0.6-4.2,1.7s-1.3,2.9-1.3,5.4v0.7c0,2.8,0.4,4.8,1.3,6s2.3,1.9,4.3,1.9c1.7,0,3-0.7,3.9-2.1s1.4-3.3,1.4-5.8
			c0-2.5-0.4-4.5-1.3-5.8S259.9,640.6,258.2,640.6z"/>
		<path class="st0" d="M273.7,631c0-0.9,0.2-1.5,0.7-2s1.1-0.7,2-0.7c0.8,0,1.5,0.2,2,0.7s0.7,1.1,0.7,2c0,0.8-0.2,1.5-0.7,1.9
			c-0.5,0.5-1.1,0.7-2,0.7c-0.9,0-1.5-0.2-2-0.7C274,632.5,273.7,631.9,273.7,631z M278.8,659.7H274v-22.7h4.8V659.7z"/>
		<path class="st0" d="M293.4,660.1c-2.8,0-5-1-6.6-3.1s-2.4-4.9-2.4-8.6c0-3.7,0.8-6.6,2.4-8.7c1.6-2.1,3.8-3.1,6.7-3.1
			c3,0,5.2,1.1,6.8,3.3h0.2c-0.2-1.6-0.3-2.9-0.3-3.9v-8.3h4.8v31.9h-3.8l-0.8-3h-0.2C298.6,659,296.4,660.1,293.4,660.1z
			 M294.7,656.2c2,0,3.4-0.6,4.3-1.7c0.9-1.1,1.4-2.9,1.4-5.4v-0.7c0-2.9-0.5-4.9-1.4-6.1s-2.4-1.8-4.4-1.8c-1.7,0-3,0.7-3.9,2.1
			c-0.9,1.4-1.4,3.3-1.4,5.9c0,2.5,0.4,4.4,1.3,5.8S292.9,656.2,294.7,656.2z"/>
		<path class="st0" d="M316.7,659.7h-4.8v-31.9h4.8V659.7z"/>
		<path class="st0" d="M320.2,637.1h5.2l4.6,12.9c0.7,1.8,1.2,3.6,1.4,5.2h0.2c0.1-0.8,0.3-1.7,0.7-2.7s2.1-6.2,5.2-15.3h5.2
			l-9.7,25.7c-1.8,4.7-4.7,7.1-8.8,7.1c-1.1,0-2.1-0.1-3.1-0.3v-3.8c0.7,0.2,1.6,0.2,2.5,0.2c2.3,0,4-1.3,4.9-4l0.8-2.1L320.2,637.1
			z"/>
	</g>
	<path class="st0" d="M601.2,88.3c-9.9,0-22.8,5.8-25.3,15.7l0,0v0c-2.5-9.8-15.4-15.7-25.3-15.7c-19.5,0-35.4,15.2-35.4,35.4
		c0,23.8,14.1,38.4,29.4,50.2c9.2,7.1,29.6,23.1,31.2,23.1c0,0,0,0,0,0s0,0,0,0c1.6,0,22-16,31.2-23.1
		c15.3-11.8,29.4-26.4,29.4-50.2C636.6,103.5,620.8,88.3,601.2,88.3z M536.9,104.3c-6.1,4.5-9.6,11.6-9.6,19.4c0,1.3-1,2.3-2.3,2.3
		s-2.3-1-2.3-2.3c0-9.3,4.2-17.7,11.5-23.1c1-0.8,2.5-0.5,3.3,0.5C538.2,102.1,538,103.6,536.9,104.3z"/>
	<path class="st0" d="M244.1,518.5c0,14.9-8.3,28-20.5,34.7c0,0-1.5,0.8-3.4,1.2c-1.9,0.3-3.3,0.4-3.3,0.4h-12.5h-12.5
		c0,0-1.4-0.1-3.3-0.4c-1.9-0.3-3.4-1.2-3.4-1.2c-12.2-6.8-20.5-19.8-20.5-34.7c0-16.5,10.1-30.6,24.4-36.6v-22.5
		c-1.9,0-3.5-1.6-3.5-3.5v-6.2c0-1.9,1.6-3.5,3.5-3.5h30.5c1.9,0,3.5,1.6,3.5,3.5v6.2c0,1.9-1.6,3.5-3.5,3.5v22.5
		C234,487.8,244.1,502,244.1,518.5z M214.7,448.5h-20.4c-1.3,0-2.3,1-2.3,2.3c0,1.3,1,2.3,2.3,2.3h20.4c1.3,0,2.3-1,2.3-2.3
		C217,449.5,215.9,448.5,214.7,448.5z M216.9,488.6c-2.7-1.1-4.5-3.8-4.5-6.7v-22.5h-16v22.5c0,2.9-1.8,5.6-4.5,6.7
		c-12.1,5.1-19.9,16.8-19.9,29.9c0,11.8,6.4,22.6,16.7,28.4c0.2,0.1,0.7,0.3,1.1,0.4c1.1,0.2,1.9,0.3,2.2,0.3h12.3h12.3
		c0.3,0,1.2-0.1,2.2-0.3c0.5-0.1,1-0.3,1.1-0.4c10.3-5.7,16.7-16.6,16.7-28.4C236.9,505.4,229,493.6,216.9,488.6z M232.2,518.5
		c0,10-5.4,19.2-14.1,24.2c-0.7,0.1-1.2,0.2-1.5,0.2h-24.2c-0.3,0-0.8-0.1-1.5-0.2c-8.7-4.9-14.1-14.2-14.1-24.2
		c0-3.5,0.7-6.9,1.9-10h51.8C231.5,511.6,232.2,515,232.2,518.5z M196,534.3c-6-3.8-9.7-10.5-9.7-17.5c0-1.3-1-2.3-2.3-2.3
		c-1.3,0-2.3,1-2.3,2.3c0,8.8,4.7,17.1,12.1,21.7l0.5,0.3l0.7,0.1c0.1,0,0.1,0,0.2,0c1.2,0,2.2-0.9,2.3-2.1
		C197.5,535.6,196.9,534.7,196,534.3z"/>
	<path class="st0" d="M618.3,831.3h-84.7c-1.9,0-3.5,1.6-3.5,3.5l0,32.6c0,0,0,0,0,0c0,9.8,0,19.6,0,22.9c0,7.3,2.5,17.8,11.9,28.3
		c13.5,15.1,34,21.3,34,21.3s20.5-6.2,34-21.3c9.4-10.5,11.9-21,11.9-28.3c0-3.3,0-13.1,0-22.9c0,0,0,0,0,0l0-32.6
		C621.9,832.9,620.3,831.3,618.3,831.3z M551.2,914.4c-0.4,0.4-1,0.6-1.5,0.6c-0.6,0-1.3-0.3-1.7-0.8c-9.2-10.3-10.6-20.1-10.6-25
		c0-1.3,1-2.3,2.3-2.3c1.3,0,2.3,1,2.3,2.3c0,4.2,1.2,12.7,9.4,21.9C552.3,912,552.2,913.5,551.2,914.4z M614.6,867.4
		c0,0,0,0.1,0,0.1v22.9c0,4.6-1.3,13.7-10,23.5c-9.5,10.7-23.3,16.5-28.6,18.5l0-93.8h38.6L614.6,867.4z"/>
	<path class="st0" d="M1011.5,487.6c-0.2,0-0.3,0-0.5,0l-6.8-0.9l0,49.6c0,1.9-1.5,3.9-3.4,4.5L951,554.4c-0.9,0.3-2.2,0.4-3.4,0.4
		c-1.2,0-2.5-0.1-3.4-0.4l-49.9-13.7c-1.9-0.5-3.4-2.5-3.4-4.5l0-49.6l-6.8,0.9c-0.2,0-0.3,0-0.5,0c-1.6,0-2.2-1.2-1.5-2.8l9.5-20.8
		c0.8-1.8,3-3.6,4.9-4.1l49.9-13.7c0.3-0.1,0.6-0.1,0.9-0.1c0.1,0,0.2,0,0.3,0c0.1,0,0.2,0,0.3,0c0.3,0,0.6,0,0.9,0.1l49.9,13.7
		c1.9,0.5,4.1,2.4,4.9,4.1l9.5,20.8C1013.8,486.4,1013.1,487.6,1011.5,487.6z M898.4,530.5c0,1.3,1,2.3,2.3,2.3c1.3,0,2.3-1,2.3-2.3
		v-22.2c0-1.3-1-2.3-2.3-2.3c-1.3,0-2.3,1-2.3,2.3V530.5z M897.7,464.4c-0.6,0.2-1.6,1.1-1.9,1.6l-7.5,16.2l46.6-6.5
		c0.2-0.1,0.7-0.4,0.8-0.7l7.1-23.1L897.7,464.4z M947.9,478.6l-0.4-1.3v68.8c0.8,0,1.4-0.1,1.5-0.1l47.9-13.2v-39.9l-38.6-5.4
		C953.7,486.9,949.3,483.1,947.9,478.6z M999.3,466c-0.2-0.5-1.3-1.4-1.9-1.6L952.3,452l7.1,23.1c0.1,0.2,0.5,0.6,0.8,0.7l46.6,6.5
		L999.3,466z"/>
</g>
<g id="New_Heart_Text">
	<text transform="matrix(1 0 0 1 494.6336 252.0459)"><tspan x="0" y="0" class="st0 st6 st7">Support</tspan><tspan x="12.3" y="50" class="st0 st6 st7">People</tspan></text>
</g>
</svg>
